<svg width="105" height="110" xmlns="http://www.w3.org/2000/svg">
 <g>
  <title>background</title>
  <rect x="-1" y="-1" width="107" height="112" id="canvas_background" fill="none"/>
 </g>

 <g>
  <title>Layer 1</title>
  <path stroke="null" d="m13.065838,54.770153c-0.265928,0 -0.479786,0.213858 -0.479786,0.479788c0,0.529998 0.959574,0.529998 0.959574,0c0,-0.265928 -0.213858,-0.479788 -0.479788,-0.479788zm13.482401,0c-0.26593,0 -0.479788,0.213858 -0.479788,0.479788c0,0.529998 0.959574,0.529998 0.959574,0c0,-0.265928 -0.213858,-0.479788 -0.479788,-0.479788l0.000002,0zm13.482396,0c-0.265928,0 -0.479786,0.213858 -0.479786,0.479788c0,0.529998 0.959574,0.529998 0.959574,0c0,-0.265928 -0.213858,-0.479788 -0.479788,-0.479788zm26.479433,3.501704l6.043835,0l0,-6.043835l-6.043835,0l0,6.043835zm34.375467,22.410537l-96.535835,0c-2.393358,0 -4.3497,1.958202 -4.3497,4.35156l0,21.116226c0,2.391497 1.956342,4.3497 4.3497,4.3497l96.535835,0c2.393358,0 4.35156,-1.958202 4.35156,-4.3497l0,-21.116226c0,-2.393358 -1.958202,-4.35156 -4.35156,-4.35156zm-87.819695,18.150098c-1.787117,0 -3.239495,-1.45238 -3.239495,-3.239495s1.452378,-3.239495 3.239495,-3.239495s3.239495,1.452378 3.239495,3.239495s-1.45238,3.239495 -3.239495,3.239495zm13.482399,0c-1.787117,0 -3.239495,-1.45238 -3.239495,-3.239495s1.452378,-3.239495 3.239495,-3.239495s3.239495,1.452378 3.239495,3.239495s-1.45238,3.239495 -3.239495,3.239495zm13.482399,0c-1.787117,0 -3.239495,-1.45238 -3.239495,-3.239495s1.452378,-3.239495 3.239495,-3.239495s3.239495,1.452378 3.239495,3.239495s-1.45238,3.239495 -3.239495,3.239495zm36.242546,1.640202c0,1.028383 -0.831259,1.859642 -1.859642,1.859642l-9.763115,0c-1.02838,0 -1.859642,-0.831259 -1.859642,-1.859642l0,-9.763115c0,-1.028383 0.831261,-1.859642 1.859642,-1.859642l9.763115,0c1.028383,0 1.859642,0.831259 1.859642,1.859642l0,9.763115zm19.120832,0c0,1.028383 -0.831261,1.859642 -1.859642,1.859642l-9.763118,0c-1.02838,0 -1.859642,-0.831259 -1.859642,-1.859642l0,-9.763115c0,-1.028383 0.831261,-1.859642 1.859642,-1.859642l9.763118,0c1.02838,0 1.859642,0.831259 1.859642,1.859642l0,9.763115zm-68.845779,-5.359486c-0.265928,0 -0.479786,0.213858 -0.479786,0.479788c0,0.529998 0.959574,0.529998 0.959574,0c0,-0.26593 -0.213858,-0.479788 -0.479788,-0.479788zm59.082661,-36.841352l6.043835,0l0,-6.043835l-6.043835,0l0,6.043835zm0,40.341196l6.043835,0l0,-6.043832l-6.043835,0l0,6.043832zm-72.56506,-3.499844c-0.265928,0 -0.479786,0.213858 -0.479786,0.479788c0,0.529998 0.959574,0.529998 0.959574,0c0,-0.26593 -0.213858,-0.479788 -0.479788,-0.479788zm26.964797,0c-0.265928,0 -0.479786,0.213858 -0.479786,0.479788c0,0.529998 0.959574,0.529998 0.959574,0c0,-0.26593 -0.213858,-0.479788 -0.479788,-0.479788zm26.479433,3.499844l6.043835,0l0,-6.043832l-6.043835,0l0,6.043832zm-53.44423,-84.184096c-0.265928,0 -0.479786,0.213858 -0.479786,0.479786c0,0.529998 0.959574,0.529998 0.959574,0c0,-0.265928 -0.213858,-0.479786 -0.479788,-0.479786zm72.56506,3.501704l6.043835,0l0,-6.043835l-6.043835,0l0,6.043835zm-59.082659,-3.501704c-0.26593,0 -0.479788,0.213858 -0.479788,0.479786c0,0.529998 0.959574,0.529998 0.959574,0c0,-0.265928 -0.213858,-0.479786 -0.479788,-0.479786l0.000002,0zm39.961829,3.501704l6.043835,0l0,-6.043835l-6.043835,0l0,6.043835zm34.375467,-17.930661l-96.535835,0c-2.393358,0 -4.3497,1.958202 -4.3497,4.349702l0,21.116226c0,2.393358 1.956342,4.35156 4.3497,4.35156l96.535835,0c2.393358,0 4.35156,-1.958202 4.35156,-4.35156l0,-21.116226c0,-2.3915 -1.958202,-4.349702 -4.35156,-4.349702zm-87.819695,18.148238c-1.787117,0 -3.239495,-1.452378 -3.239495,-3.239495s1.452378,-3.239495 3.239495,-3.239495s3.239495,1.45238 3.239495,3.239495s-1.45238,3.239495 -3.239495,3.239495zm13.482399,0c-1.787117,0 -3.239495,-1.452378 -3.239495,-3.239495s1.452378,-3.239495 3.239495,-3.239495s3.239495,1.45238 3.239495,3.239495s-1.45238,3.239495 -3.239495,3.239495zm13.482399,0c-1.787117,0 -3.239495,-1.452378 -3.239495,-3.239495s1.452378,-3.239495 3.239495,-3.239495s3.239495,1.45238 3.239495,3.239495s-1.45238,3.239495 -3.239495,3.239495zm36.242546,1.642065c0,1.02838 -0.831259,1.859639 -1.859642,1.859639l-9.763115,0c-1.02838,0 -1.859642,-0.831259 -1.859642,-1.859639l0,-9.763118c0,-1.02838 0.831261,-1.859642 1.859642,-1.859642l9.763115,0c1.028383,0 1.859642,0.831261 1.859642,1.859642l0,9.763118zm19.120832,0c0,1.02838 -0.831261,1.859639 -1.859642,1.859639l-9.763118,0c-1.02838,0 -1.859642,-0.831259 -1.859642,-1.859639l0,-9.763118c0,-1.02838 0.831261,-1.859642 1.859642,-1.859642l9.763118,0c1.02838,0 1.859642,0.831261 1.859642,1.859642l0,9.763118zm-55.36338,-5.361346c-0.265928,0 -0.479786,0.213858 -0.479786,0.479786c0,0.529998 0.959574,0.529998 0.959574,0c0,-0.265928 -0.213858,-0.479786 -0.479788,-0.479786zm60.8549,25.910381l-96.535835,0c-2.393358,0 -4.3497,1.958202 -4.3497,4.35156l0,21.116226c0,2.393358 1.956342,4.35156 4.3497,4.35156l96.535835,0c2.393358,0 4.35156,-1.958202 4.35156,-4.35156l0,-21.116226c0,-2.393358 -1.958202,-4.35156 -4.35156,-4.35156zm-87.819697,18.150098c-1.787115,0 -3.239495,-1.45238 -3.239495,-3.239495s1.45238,-3.239495 3.239495,-3.239495s3.239495,1.452378 3.239495,3.239495s-1.452378,3.239495 -3.239495,3.239495zm13.482399,0c-1.787115,0 -3.239495,-1.45238 -3.239495,-3.239495s1.45238,-3.239495 3.239495,-3.239495s3.239495,1.452378 3.239495,3.239495s-1.452378,3.239495 -3.239495,3.239495zm13.482399,0c-1.787115,0 -3.239495,-1.45238 -3.239495,-3.239495s1.45238,-3.239495 3.239495,-3.239495s3.239495,1.452378 3.239495,3.239495s-1.452378,3.239495 -3.239495,3.239495zm36.242548,1.642063c0,1.02838 -0.831259,1.859642 -1.859642,1.859642l-9.763115,0c-1.028383,0 -1.859642,-0.831261 -1.859642,-1.859642l0,-9.763115c0,-1.028383 0.831259,-1.859642 1.859642,-1.859642l9.763115,0c1.028383,0 1.859642,0.831259 1.859642,1.859642l0,9.763115zm19.12083,0c0,1.02838 -0.831259,1.859642 -1.859639,1.859642l-9.763118,0c-1.02838,0 -1.859642,-0.831261 -1.859642,-1.859642l0,-9.763115c0,-1.028383 0.831261,-1.859642 1.859642,-1.859642l9.763118,0c1.02838,0 1.859639,0.831259 1.859639,1.859642l0,9.763115z" id="svg_1" fill="#ffffff"/>
 </g>
</svg>